#tb 0: 1/25
0,          0,          0,        1,   599040, 0xe56f6a5c
0,          1,          1,        1,   599040, 0x31ec1bb9
0,          2,          2,        1,   599040, 0xf3ce0311
0,          3,          3,        1,   599040, 0x1ae1c223
0,          4,          4,        1,   599040, 0x4369499d
0,          5,          5,        1,   599040, 0xd7366bd6
0,          6,          6,        1,   599040, 0x6d3a9099
0,          7,          7,        1,   599040, 0x49dea495
0,          8,          8,        1,   599040, 0x375640e7
0,          9,          9,        1,   599040, 0x76b6f9b0
0,         10,         10,        1,   599040, 0x7d1f48cf
0,         11,         11,        1,   599040, 0x4a01899c
0,         12,         12,        1,   599040, 0x34ff06e6
0,         13,         13,        1,   599040, 0x270d874f
0,         14,         14,        1,   599040, 0x5a091d5c
0,         15,         15,        1,   599040, 0x36406961
0,         16,         16,        1,   599040, 0xd32f2687
0,         17,         17,        1,   599040, 0x8d533cb5
0,         18,         18,        1,   599040, 0x5f189f98
0,         19,         19,        1,   599040, 0x32b76de3
0,         20,         20,        1,   599040, 0x2dd0e738
0,         21,         21,        1,   599040, 0xbc24fe31
0,         22,         22,        1,   599040, 0xfd5e6578
0,         23,         23,        1,   599040, 0x23ea676c
0,         24,         24,        1,   599040, 0xa86d1f70
0,         25,         25,        1,   599040, 0xef35e81e
0,         26,         26,        1,   599040, 0x19e5b355
0,         27,         27,        1,   599040, 0x9dab17b3
0,         28,         28,        1,   599040, 0x1aebe590
0,         29,         29,        1,   599040, 0x6fd9b16e
0,         30,         30,        1,   599040, 0xd2f3087b
0,         31,         31,        1,   599040, 0x4bdc5019
0,         32,         32,        1,   599040, 0xeccd10a0
0,         33,         33,        1,   599040, 0x1eacd33c
0,         34,         34,        1,   599040, 0xc73d2b6d
0,         35,         35,        1,   599040, 0xe1305f2b
0,         36,         36,        1,   599040, 0xb66c5e54
0,         37,         37,        1,   599040, 0x0ac17870
0,         38,         38,        1,   599040, 0x9d976180
0,         39,         39,        1,   599040, 0x0be7d418
0,         40,         40,        1,   599040, 0x5c4fb909
0,         41,         41,        1,   599040, 0x7a4de7c2
0,         42,         42,        1,   599040, 0x9c0d3ed3
0,         43,         43,        1,   599040, 0xf9b2ba7e
0,         44,         44,        1,   599040, 0x78e77b58
0,         45,         45,        1,   599040, 0xc30ead17
0,         46,         46,        1,   599040, 0x647c9095
0,         47,         47,        1,   599040, 0x070d61a3
0,         48,         48,        1,   599040, 0x0ec33c61
0,         49,         49,        1,   599040, 0x0adcf4f3
0,         50,         50,        1,   599040, 0x5cbb5aa6
0,         51,         51,        1,   599040, 0xb9f99f74
0,         52,         52,        1,   599040, 0xebc3c13e
0,         53,         53,        1,   599040, 0x40e76036
0,         54,         54,        1,   599040, 0xf08d2df3
0,         55,         55,        1,   599040, 0x47442b55
0,         56,         56,        1,   599040, 0x147622c1
0,         57,         57,        1,   599040, 0xc95508a3
0,         58,         58,        1,   599040, 0x361b8995
0,         59,         59,        1,   599040, 0x51086ed4
